PathFileType	4	(X/Y/Z)	C:/Users/beibeiliu/ov580/test_trc/User3\sequence.14_training_dense_left.trc
DataRate	CameraRate	NumFrames	NumMarkers	Units	OrigDataRate	OrigDataStartFrame	OrigNumFrames
120	120	17	19	mm	120	1	246
Frame#	Time	ThumbCMC			ThumbMCP			ThumbIP			ThumbTip			IndexMCP			IndexPIP			IndexTip			MiddleMCP			MiddlePIP			MiddleTip			RingMCP			RingPIP			RingTip			PinkyMCP			PinkyPIP			PinkyTip			BackHand1			BackHand2			BackHand3	
		X0	Y0	Z0	X1	Y1	Z1	X2	Y2	Z2	X3	Y3	Z3	X4	Y4	Z4	X5	Y5	Z5	X6	Y6	Z6	X7	Y7	Z7	X8	Y8	Z8	X9	Y9	Z9	X10	Y10	Z10	X11	Y11	Z11	X12	Y12	Z12	X13	Y13	Z13	X14	Y14	Z14	X15	Y15	Z15	X16	Y16	Z16	X17	Y17	Z17	X18	Y18	Z18	
0	0	-142.865	-6.81783	28.7975	-124.482	-12.5279	3.74556	-108.699	-15.5055	-23.3778	-106.915	-22.9811	-50.9498	-152.629	5.23335	-49.5782	-139.195	-13.9452	-71.0087	-130.423	-48.4929	-69.6319	-170.427	-0.787506	-58.3078	-159.889	-25.4413	-78.7037	-152.754	-60.5165	-64.9373	-187.414	-11.9454	-55.7182	-179.881	-35.2596	-70.429	-170.046	-62.162	-52.4703	-208.998	-23.4415	-45.9217	-199.414	-42.5091	-58.4553	-180.475	-61.9593	-44.351	-203.263	7.94634	-3.17695	-208.748	2.0681	31.905	-175.174	14.5456	18.0173	
1	0.00833333	-145.622	-7.12984	26.6582	-125.04	-11.1269	3.24474	-114.913	-15.8112	-22.8892	-108.947	-23.7097	-49.3947	-154.622	4.02786	-50.8031	-141.605	-18.319	-72.8828	-133.505	-49.8066	-69.2991	-170.938	-2.08122	-60.3591	-161.269	-23.3025	-78.1731	-153.749	-60.7606	-64.5483	-193.637	-13.1057	-54.6679	-180.021	-35.7698	-69.503	-168.582	-64.5683	-47.9815	-209.025	-22.5512	-41.526	-196.911	-47.2625	-58.0245	-183.193	-65.2837	-44.2758	-207.045	4.76697	0.160172	-209.45	3.06779	29.5722	-175.671	13.844	16.381	
2	0.0166667	-146.64	-7.76196	28.6485	-127.495	-11.8109	6.13982	-111.941	-15.4862	-25.4468	-110.12	-23.5744	-44.2661	-149.803	3.14199	-53.0286	-142.887	-16.5926	-71.3477	-130.18	-45.0349	-70.0605	-174.634	-1.3344	-57.8219	-161.441	-24.5482	-77.7431	-150.91	-58.7188	-65.1885	-189.931	-10.7882	-51.9678	-178.743	-39.8157	-68.3817	-170.162	-64.0812	-48.2744	-210.553	-23.1978	-43.4425	-198.66	-46.5544	-57.4369	-183.149	-63.0873	-41.9677	-208.655	4.90589	-0.38719	-209.225	1.46645	29.211	-178.322	12.6305	18.9474	
3	0.025	-143.495	-5.57812	24.572	-128.335	-11.6378	3.07517	-113.598	-15.8453	-23.3144	-108.441	-23.7675	-43.1363	-152.477	2.5949	-52.6529	-137.872	-18.4378	-72.4219	-135.415	-44.851	-71.3592	-172.547	-0.525062	-56.1994	-160.863	-26.947	-77.9094	-153.334	-60.1321	-64.5742	-188.767	-11.5627	-54.4525	-179.953	-39.1316	-68.793	-169.46	-61.4357	-52.86	-206.74	-21.5866	-40.9484	-195.492	-43.2496	-58.5632	-182.148	-64.7685	-43.219	-206.311	4.91708	-3.29318	-212.949	1.06768	27.441	-176.823	14.1175	16.1312	
4	0.0333333	-147.776	-8.34256	27.8906	-126.816	-11.6782	1.71753	-110.7	-16.3267	-21.7385	-106.353	-24.0784	-45.4727	-150.134	5.30869	-49.4098	-140.3	-14.0226	-71.2074	-130.494	-43.8699	-71.5924	-168.591	-1.03245	-61.041	-157.283	-28.4509	-76.7881	-150.733	-58.8551	-65.1113	-192.753	-13.5974	-53.8385	-178.037	-39.7321	-68.9468	-170.016	-63.3923	-48.1254	-210.229	-24.5415	-44.4323	-195.55	-41.4961	-57.8788	-182.012	-64.7488	-42.7707	-207.182	6.41555	-2.51881	-207.381	3.75748	27.0042	-176.826	12.824	16.1657	
5	0.0416667	-146.858	-7.47504	24.1273	-127.716	-11.7475	2.76286	-113.553	-15.8627	-25.2907	-106.798	-24.3608	-46.7252	-149.174	5.65542	-48.0343	-141.993	-18.5415	-72.1936	-131.358	-44.154	-70.9823	-172.359	-3.05434	-60.1647	-158.816	-26.3074	-77.125	-154.067	-60.3015	-63.8262	-193.036	-13.6026	-54.0455	-181.01	-40.7115	-68.379	-172.502	-63.0274	-50.4299	-208.757	-22.3692	-44.075	-197.37	-40.5837	-58.1388	-183.989	-63.3838	-42.056	-204.087	6.81442	1.30684	-209.469	2.01031	28.5393	-173.617	13.4118	18.0517	
6	0.05	-144.668	-6.67533	25.0785	-125.201	-11.5375	2.32905	-114.43	-18.0993	-20.8145	-109.116	-24.2804	-44.5653	-152.184	2.34446	-52.9103	-139.456	-14.7513	-70.0928	-133.969	-45.1512	-71.1594	-173.163	-3.71548	-60.7796	-159.581	-24.2604	-76.9403	-151.999	-62.1639	-64.0377	-189.496	-11.052	-51.5231	-181.461	-37.5933	-68.8502	-167.983	-64.2968	-49.4031	-210.831	-23.4921	-44.5556	-196.33	-45.3788	-58.2792	-183.325	-64.3892	-43.2846	-202.487	5.18008	1.5185	-211.101	1.65937	29.9283	-177.288	13.8395	19.0385	
7	0.0583333	-145.344	-7.45033	30.341	-125.922	-12.0405	5.99561	-110.523	-14.6471	-23.5137	-104.867	-22.3519	-44.4815	-151.4	3.96702	-51.6319	-138.314	-18.4054	-71.8568	-135.071	-45.0151	-72.6199	-171.307	-2.49806	-59.9592	-160.592	-24.2581	-77.3733	-148.811	-62.5	-64.3802	-188.868	-10.274	-52.594	-183.83	-37.2875	-69.7596	-172.321	-63.0429	-55.5833	-209.775	-21.3608	-46.7188	-198.545	-39.7134	-59.8068	-182.511	-64.5318	-45.877	-207.368	4.4319	1.17825	-210.443	2.30518	28.3614	-174.125	15.534	18.988	
8	0.0666667	-145.104	-8.26463	28.4352	-126.747	-11.2875	4.61291	-113.763	-14.0633	-19.9976	-106.266	-19.4454	-45.5314	-151.396	5.41155	-48.473	-139.794	-17.0313	-73.3397	-130.23	-46.6471	-72.5505	-171.603	1.17451	-56.2215	-162.791	-24.4919	-80.0626	-152.148	-58.2673	-72.4232	-190.576	-8.63684	-53.7446	-184.638	-31.7133	-72.7134	-169.892	-60.9208	-62.496	-211.535	-17.9869	-41.0232	-200.83	-33.45	-61.3567	-186.703	-61.4645	-56.1516	-203.784	5.04927	0.953758	-210.531	1.27621	32.0094	-174.61	12.2162	20.2809	
9	0.075	-147.05	-9.26546	30.8598	-122.287	-10.0695	7.84519	-106.937	-11.5111	-14.6585	-103.346	-18.0807	-38.0589	-149.56	6.57732	-48.3627	-142.886	-8.65595	-72.5863	-134.29	-38.7817	-80.4939	-169.785	4.67279	-57.2548	-160.189	-14.0175	-81.7642	-152.694	-49.5943	-83.6206	-188.299	-2.50458	-53.1291	-188.604	-20.6496	-76.0734	-175.466	-51.8229	-76.7362	-208.581	-13.3725	-37.069	-204.079	-27.6758	-63.7874	-191.082	-51.4463	-67.0503	-206.055	5.32142	2.51633	-209.38	3.53769	29.1553	-173.037	12.4711	22.0332	
10	0.0833333	-144.17	-7.73525	29.6153	-123.148	-9.34599	9.79206	-105.662	-10.4642	-14.268	-94.5968	-14.1614	-36.199	-151.042	7.96721	-49.1858	-139.375	-2.8516	-73.5967	-134.216	-30.7913	-88.9126	-171.614	8.23088	-58.4796	-163.432	-4.52855	-83.0348	-158.609	-36.9512	-97.8731	-196.05	-0.0590581	-50.8847	-191.448	-9.44894	-77.7215	-179.613	-37.8328	-92.5566	-210.535	-10.713	-35.899	-210.038	-17.7466	-64.3016	-200.46	-38.8464	-77.6784	-205.228	5.5871	3.36362	-207.575	3.17948	28.422	-174.167	12.67	20.5779	
11	0.0916667	-146.786	-10.846	30.6596	-119.365	-9.91776	12.9158	-100.648	-10.282	-9.55326	-91.7887	-14.7282	-30.1631	-149.078	10.2492	-49.388	-138.521	2.73623	-76.3709	-133.677	-14.2248	-94.7495	-173.643	10.9945	-55.3171	-168.648	3.67265	-86.4996	-160.549	-21.2403	-112.286	-196.629	2.26706	-48.2046	-192.435	-0.685654	-76.518	-190.04	-19.1392	-100.391	-211.449	-7.51284	-40.0101	-214.467	-11.9166	-60.6461	-213.038	-29.036	-85.2571	-204.619	7.53328	1.3705	-209.507	3.95181	29.9368	-169.914	10.7261	18.0041	
12	0.1	-146.406	-9.43279	25.7914	-123.9	-12.6413	9.90426	-98.4784	-12.5121	-7.87047	-84.2832	-14.8168	-25.1192	-148.506	10.5257	-50.5323	-137.223	7.38128	-75.1898	-132.519	-3.26472	-96.7415	-173.262	11.7338	-57.2252	-171.011	8.252	-87.4205	-166.869	-3.10458	-114.63	-200.066	2.78513	-49.7836	-194.733	2.26082	-78.5916	-195.453	-8.82692	-103.826	-217.387	-10.512	-35.8624	-220.569	-11.5602	-58.4111	-221.402	-19.6208	-86.5412	-200.057	5.88023	-0.531907	-206.54	3.6087	31.7624	-171.974	8.97271	18.7752	
13	0.108333	-145.558	-12.2901	28.6602	-120.002	-12.231	10.0856	-97.8913	-11.8965	-8.7676	-82.147	-15.4101	-23.9313	-154.427	8.45616	-48.7738	-142.202	9.68189	-73.129	-133.585	2.36059	-101.418	-177.211	11.6364	-59.4571	-172.567	10.8175	-86.4783	-168.88	6.13832	-114.479	-199.62	2.40066	-51.9395	-200.402	2.45504	-74.4057	-200.127	-2.64643	-102.11	-216.929	-9.52455	-40.0164	-224.65	-12.9903	-62.7136	-226.873	-15.5286	-84.3582	-201.951	4.21062	-1.42016	-206.861	5.11487	28.6281	-172.808	9.85917	19.4151	
14	0.116667	-145.09	-12.851	27.1812	-123.217	-15.2072	12.1859	-98.8847	-15.0821	-5.71693	-83.8701	-17.3931	-21.0946	-155.082	6.86694	-52.3252	-144.629	8.39579	-75.0338	-135.202	5.42837	-100.573	-178.168	9.02608	-56.5614	-174.451	11.1011	-84.7875	-173.66	9.75959	-119.689	-201.49	0.117527	-51.6019	-203.667	1.70907	-76.5551	-203.589	-0.967757	-101.137	-223.976	-12.6332	-40.1008	-228.882	-14.0985	-57.2421	-235.784	-14.6819	-84.3923	-207.256	3.27416	0.490829	-206.512	1.62306	27.028	-174.541	7.12957	15.0064	
15	0.125	-147.049	-16.4779	25.2722	-124.918	-18.1799	7.84747	-98.8493	-16.4203	-9.84819	-83.5001	-20.919	-17.4843	-154.86	2.97625	-51.3608	-142.351	5.6672	-74.8467	-137.614	6.86704	-103.44	-183.601	6.40267	-56.7725	-176.223	10.3263	-88.0049	-175.273	11.1452	-116.121	-205.63	-3.07429	-50.8716	-205.599	-1.37469	-75.3501	-209.957	-1.96227	-102.221	-227.506	-15.6767	-39.1557	-230.834	-16.7564	-58.8471	-237.87	-16.4616	-82.5591	-206.059	0.398872	-3.55049	-208.337	0.510471	26.6961	-173.663	6.22301	11.0441	
16	0.133333	-148.902	-18.7964	24.9716	-124.417	-19.6805	4.83242	-102.869	-19.8571	-8.90596	-82.7698	-19.9716	-21.0251	-158.97	-1.87366	-51.7137	-148.256	1.26665	-79.8438	-140.385	4.20989	-101.511	-188.144	0.504457	-57.8643	-184.51	5.27205	-87.837	-181.29	7.45083	-116.839	-205.585	-8.03475	-54.3228	-211.802	-5.47129	-78.8582	-214.82	-4.43147	-106.806	-229.441	-20.7267	-41.5577	-235.597	-22.2946	-58.5149	-243.596	-22.486	-79.7605	-209.179	-2.8201	-0.989329	-209.446	-0.647651	23.3185	-177.684	2.32741	8.19562	
